<svg xmlns="http://www.w3.org/2000/svg" width="19" height="18" viewBox="0 0 19 18" fill="none">
  <path d="M9.75 2C11.4063 2 12.9244 2.57974 14.1236 3.54427L12.6997 4.96823C11.8739 4.36165 10.8552 4 9.75 4C6.98873 4 4.75 6.23873 4.75 9C4.75 11.7613 6.98873 14 9.75 14C11.928 14 13.7735 12.6056 14.46 10.6669L14.6961 10H13.9886H10.25V8H16V8.03113H16.5H16.6818C16.7263 8.34836 16.75 8.67169 16.75 9C16.75 12.8657 13.6157 16 9.75 16C5.88427 16 2.75 12.8657 2.75 9C2.75 5.13427 5.88427 2 9.75 2Z" fill="black" stroke="black"/>
  <path d="M3.11475 5.50913L5.57887 7.31625C6.24562 5.6655 7.86037 4.5 9.75 4.5C10.8971 4.5 11.9407 4.93275 12.7354 5.63963L14.8567 3.51825C13.5172 2.26988 11.7255 1.5 9.75 1.5C6.86925 1.5 4.371 3.12638 3.11475 5.50913Z" fill="#FF3D00"/>
  <path d="M9.75012 16.5C11.6874 16.5 13.4476 15.7586 14.7785 14.553L12.4572 12.5888C11.6789 13.1807 10.7279 13.5008 9.75012 13.5C7.79937 13.5 6.14299 12.2561 5.51899 10.5203L3.07324 12.4046C4.31449 14.8335 6.83524 16.5 9.75012 16.5Z" fill="#4CAF50"/>
  <path d="M17.1041 7.53113H16.5V7.5H9.75V10.5H13.9886C13.6928 11.3312 13.16 12.0574 12.456 12.5891L12.4571 12.5884L14.7784 14.5526C14.6141 14.7019 17.25 12.75 17.25 9C17.25 8.49713 17.1982 8.00625 17.1041 7.53113Z" fill="#1976D2"/>
</svg>