<svg width="159" height="159" viewBox="0 0 159 159" fill="none" xmlns="http://www.w3.org/2000/svg">
<path d="M63.1466 142.629C63.7262 142.795 64.2596 143.044 64.7468 143.377C65.2327 143.715 65.6299 144.111 65.9384 144.566C66.2419 145.018 66.4117 145.502 66.4477 146.017L65.1104 146.126C65.0898 145.81 64.9718 145.504 64.7563 145.21C64.5342 144.919 64.2502 144.661 63.9044 144.434C63.5585 144.208 63.183 144.037 62.7778 143.922C62.3163 143.79 61.8668 143.742 61.4295 143.778C60.9855 143.818 60.6017 143.938 60.2779 144.14C59.9542 144.342 59.7404 144.624 59.6365 144.989C59.5297 145.363 59.5708 145.705 59.7599 146.014C59.9476 146.328 60.2217 146.611 60.5822 146.864C60.9412 147.122 61.3278 147.351 61.7417 147.553C62.4503 147.888 63.0672 148.253 63.5926 148.647C64.1114 149.044 64.4841 149.497 64.7107 150.005C64.9321 150.512 64.9469 151.102 64.7552 151.774C64.5767 152.399 64.2413 152.894 63.7492 153.259C63.2519 153.621 62.6692 153.846 62.0011 153.933C61.333 154.019 60.6553 153.965 59.9681 153.769C59.3988 153.606 58.8731 153.359 58.3909 153.027C57.9022 152.699 57.5009 152.308 57.1872 151.852C56.8735 151.396 56.6964 150.899 56.656 150.361L58.0065 150.264C58.0256 150.585 58.1462 150.892 58.3683 151.182C58.5838 151.477 58.8652 151.735 59.2125 151.956C59.5532 152.18 59.9288 152.351 60.339 152.468C60.794 152.604 61.2409 152.651 61.6797 152.61C62.1185 152.569 62.4998 152.447 62.8235 152.246C63.1473 152.044 63.3604 151.764 63.4628 151.405C63.5857 150.974 63.5673 150.611 63.4075 150.316C63.2411 150.024 62.9765 149.766 62.6138 149.54C62.2511 149.315 61.836 149.088 61.3686 148.861C60.7047 148.544 60.1119 148.172 59.5902 147.746C59.067 147.325 58.6859 146.853 58.4469 146.33C58.2027 145.805 58.1685 145.235 58.3441 144.62C58.5226 143.994 58.8605 143.5 59.3578 143.137C59.85 142.773 60.4301 142.547 61.0982 142.461C61.7663 142.374 62.4491 142.43 63.1466 142.629Z" fill="black"/>
<path d="M37.5943 136.229L40.4347 132.143L41.5382 132.91L38.8668 136.753C38.6354 137.086 38.5063 137.444 38.4796 137.828C38.4529 138.213 38.5205 138.578 38.6824 138.924C38.8413 139.275 39.0871 139.566 39.4199 139.797C39.7483 140.026 40.1068 140.155 40.4953 140.185C40.8764 140.216 41.2424 140.152 41.5931 139.993C41.9439 139.834 42.235 139.588 42.4664 139.255L45.1378 135.413L46.2413 136.18L39.3915 146.033L38.288 145.266L41.1421 141.16C40.6969 141.305 40.2345 141.345 39.755 141.277C39.2724 141.215 38.8231 141.039 38.4071 140.75C37.9167 140.409 37.5537 139.978 37.3183 139.457C37.0754 138.937 36.9758 138.394 37.0194 137.827C37.0586 137.256 37.2503 136.724 37.5943 136.229Z" fill="black"/>
<path d="M28.3229 120.2C28.7654 120.788 29.0182 121.439 29.0812 122.153C29.1411 122.862 29.0264 123.552 28.7374 124.224C28.4409 124.894 27.9836 125.462 27.3657 125.927C26.897 126.279 26.3976 126.525 25.8677 126.663C25.3335 126.805 24.804 126.846 24.2791 126.788C23.7467 126.728 23.2473 126.57 22.7807 126.313C22.3142 126.057 21.9158 125.709 21.5855 125.27C21.1429 124.682 20.8917 124.034 20.8319 123.324C20.7689 122.611 20.8857 121.919 21.1822 121.249C21.4755 120.574 21.9332 120.003 22.5554 119.534C23.0199 119.185 23.5171 118.941 24.047 118.802C24.5769 118.664 25.1081 118.625 25.6404 118.685C26.1653 118.743 26.6611 118.901 27.1276 119.157C27.591 119.409 27.9894 119.757 28.3229 120.2ZM27.249 121.008C26.9476 120.608 26.5722 120.326 26.1228 120.164C25.666 120 25.1961 119.957 24.713 120.033C24.2225 120.109 23.7727 120.3 23.3635 120.608C22.9459 120.923 22.6345 121.307 22.4294 121.762C22.2211 122.212 22.1327 122.676 22.1644 123.153C22.1961 123.629 22.3611 124.066 22.6594 124.462C22.9608 124.863 23.3383 125.143 23.7919 125.302C24.2412 125.464 24.7112 125.508 25.2017 125.432C25.6923 125.357 26.1442 125.164 26.5576 124.853C26.9837 124.532 27.2994 124.144 27.5045 123.69C27.7054 123.238 27.7862 122.773 27.7471 122.296C27.7036 121.821 27.5376 121.392 27.249 121.008Z" fill="black"/>
<path d="M22.4986 103.218L22.9157 104.496L11.5083 108.22L11.0911 106.943L12.3916 106.518C11.861 106.405 11.3885 106.178 10.974 105.836C10.5545 105.496 10.2479 105.03 10.0542 104.437C9.87379 103.884 9.80889 103.333 9.85951 102.783C9.90848 102.229 10.0584 101.709 10.3094 101.223C10.5552 100.739 10.885 100.314 11.2988 99.9488C11.7126 99.5837 12.1958 99.3109 12.7484 99.1305C13.3011 98.95 13.8547 98.8843 14.4093 98.9333C14.9638 98.9823 15.4858 99.1288 15.9751 99.373C16.4593 99.6189 16.8848 99.9513 17.2515 100.37C17.6167 100.784 17.8894 101.267 18.0698 101.82C18.2635 102.413 18.2938 102.97 18.1607 103.49C18.0226 104.012 17.7726 104.475 17.4109 104.879L22.4986 103.218ZM11.2988 104.047C11.4593 104.539 11.7242 104.929 12.0935 105.218C12.4628 105.507 12.8884 105.685 13.3703 105.752C13.8506 105.814 14.3468 105.762 14.8589 105.595C15.3659 105.429 15.7975 105.179 16.1537 104.844C16.5083 104.504 16.7503 104.11 16.8795 103.664C17.0071 103.213 16.9898 102.739 16.8276 102.242C16.667 101.75 16.398 101.339 16.0206 101.008C15.6381 100.678 15.1984 100.457 14.7016 100.344C14.1997 100.233 13.6901 100.262 13.173 100.431C12.666 100.596 12.2444 100.869 11.9081 101.248C11.5667 101.629 11.3389 102.065 11.2245 102.557C11.1102 103.048 11.1349 103.545 11.2988 104.047Z" fill="black"/>
<path d="M29.1743 37.1956L23.9239 31.1596L24.938 30.2775L25.5943 31.032C25.5625 30.5648 25.6358 30.1087 25.8142 29.6637C25.9932 29.2112 26.2738 28.8187 26.6561 28.4861C27.1027 28.0976 27.6057 27.851 28.1649 27.7462C28.7241 27.6415 29.2661 27.6755 29.7909 27.8481C29.6927 27.3044 29.7321 26.7647 29.9093 26.2289C30.0905 25.6896 30.4024 25.2274 30.845 24.8423C31.2997 24.4468 31.8085 24.1987 32.3712 24.098C32.9304 23.9933 33.4797 24.0315 34.019 24.2127C34.5623 24.3904 35.0318 24.7066 35.4273 25.1613L38.6931 28.9157L37.679 29.7977L34.6233 26.2848C34.3643 25.987 34.0521 25.7744 33.6867 25.6469C33.3213 25.5194 32.9494 25.4859 32.5709 25.5465C32.1924 25.6071 31.8543 25.767 31.5565 26.026C31.2587 26.285 31.0501 26.5937 30.9307 26.9521C30.8077 27.3064 30.7841 27.6734 30.8597 28.0529C30.9319 28.4284 31.108 28.7771 31.388 29.099L34.4437 32.612L33.4297 33.494L30.374 29.9811C30.0939 29.6592 29.773 29.4365 29.4111 29.313C29.0457 29.1855 28.677 29.1598 28.305 29.236C27.9336 29.3047 27.5989 29.4685 27.3012 29.7275C27.0074 29.983 26.8023 30.2958 26.6858 30.6657C26.5734 31.0321 26.555 31.4051 26.6306 31.7846C26.7063 32.1641 26.8736 32.5028 27.1326 32.8006L30.1884 36.3135L29.1743 37.1956Z" fill="black"/>
<path d="M56.5111 10.5684L57.7877 10.148L60.2904 17.7464L59.0139 18.1669L58.5377 16.9003C58.4448 17.4194 58.2331 17.885 57.9028 18.297C57.5775 18.7073 57.1261 19.0076 56.5486 19.1978C55.9914 19.3814 55.4355 19.4494 54.8808 19.4019C54.3244 19.3493 53.7979 19.1998 53.3012 18.9535C52.8079 18.7004 52.3774 18.365 52.0095 17.9471C51.6417 17.5292 51.3651 17.0391 51.1799 16.4768C51.0014 15.9348 50.9342 15.3898 50.9783 14.8418C51.0224 14.2938 51.1651 13.7808 51.4063 13.3027C51.6509 12.8178 51.9779 12.3957 52.3873 12.0362C52.7951 11.6717 53.2725 11.3993 53.8196 11.2191C54.4173 11.0222 54.9884 10.9914 55.5326 11.1266C56.0752 11.2567 56.5593 11.4987 56.9847 11.8527L56.5111 10.5684ZM56.1179 17.9668C56.6194 17.8016 57.0125 17.5374 57.2971 17.1741C57.5851 16.8041 57.7587 16.3763 57.8178 15.8908C57.8819 15.4036 57.8306 14.9067 57.6637 14.4002C57.4935 13.8835 57.2387 13.4508 56.8993 13.1022C56.5582 12.7485 56.1627 12.5109 55.7128 12.3896C55.2663 12.2615 54.7949 12.2792 54.2984 12.4427C53.7969 12.6079 53.3819 12.8822 53.0533 13.2655C52.7248 13.6489 52.5082 14.0909 52.4035 14.5914C52.3022 15.0852 52.3359 15.5879 52.5044 16.0995C52.6729 16.6112 52.9505 17.0363 53.3372 17.375C53.7222 17.7086 54.1608 17.932 54.6529 18.0451C55.1433 18.1531 55.6316 18.127 56.1179 17.9668Z" fill="black"/>
<path d="M74.1279 15.1942L73.5826 3.20657L74.9252 3.14551L75.4705 15.1331L74.1279 15.1942Z" fill="black"/>
<path d="M91 16.3692C90.2811 16.2116 89.6652 15.8827 89.1525 15.3825C88.6449 14.8835 88.282 14.2852 88.0637 13.5876C87.8518 12.8859 87.8287 12.1574 87.9943 11.402C88.12 10.829 88.3387 10.3173 88.6504 9.86692C88.9633 9.41137 89.338 9.0349 89.7745 8.73751C90.2174 8.43606 90.6993 8.23052 91.2202 8.12091C91.7411 8.01129 92.2698 8.01533 92.8064 8.13302C93.3951 8.26213 93.908 8.50021 94.3451 8.84725C94.7886 9.19022 95.1386 9.61097 95.3951 10.1095C95.6568 10.6092 95.8125 11.1566 95.8621 11.7517C95.917 12.3479 95.8513 12.9587 95.665 13.584L89.2885 12.1855C89.2539 12.642 89.313 13.0699 89.4656 13.4692C89.6194 13.8633 89.8512 14.2008 90.1609 14.4817C90.4758 14.7637 90.8514 14.9553 91.2879 15.0564C91.7568 15.1593 92.2076 15.1326 92.6405 14.9764C93.0745 14.8149 93.4549 14.5489 93.7819 14.1784L95.0496 14.784C94.5851 15.4083 93.9891 15.8728 93.2616 16.1773C92.5353 16.4767 91.7814 16.5406 91 16.3692ZM89.4757 11.1454L94.5706 12.2629C94.6249 11.8161 94.5717 11.3867 94.4109 10.9747C94.2512 10.5575 94.0104 10.1989 93.6885 9.89901C93.3667 9.59908 92.9869 9.40113 92.5493 9.30515C92.1117 9.20918 91.6872 9.22799 91.2757 9.3616C90.8641 9.49521 90.4986 9.71807 90.179 10.0302C89.8657 10.3382 89.6313 10.71 89.4757 11.1454Z" fill="black"/>
<path d="M124.135 30.5195L124.586 31.8066C123.977 31.937 123.363 31.9261 122.744 31.7738C122.13 31.6252 121.582 31.3318 121.101 30.8937C120.556 30.3982 120.187 29.8057 119.992 29.1164C119.802 28.4307 119.786 27.7311 119.945 27.0176C120.112 26.3038 120.455 25.661 120.976 25.0892C121.371 24.6555 121.816 24.3213 122.311 24.0867C122.81 23.8482 123.322 23.7091 123.849 23.6693C124.383 23.6292 124.903 23.6917 125.409 23.8568C125.915 24.0219 126.371 24.2893 126.778 24.6592C127.259 25.0973 127.602 25.6154 127.807 26.2136C128.017 26.8155 128.083 27.4277 128.007 28.0505L126.683 27.7217C126.706 27.3166 126.644 26.9325 126.499 26.5694C126.354 26.2062 126.145 25.9007 125.873 25.6529C125.506 25.319 125.083 25.1141 124.604 25.0384C124.132 24.9623 123.662 25.007 123.194 25.1723C122.726 25.3377 122.318 25.6116 121.97 25.9941C121.622 26.3766 121.387 26.8086 121.266 27.2899C121.153 27.7709 121.156 28.2427 121.276 28.7052C121.399 29.1714 121.643 29.5696 122.005 29.9C122.297 30.1657 122.632 30.3482 123.011 30.4475C123.389 30.5469 123.764 30.5709 124.135 30.5195Z" fill="black"/>
<path d="M142.948 45.1744L143.595 46.3522L136.585 50.2059L135.937 49.0282L137.095 48.3278C136.568 48.3317 136.071 48.209 135.606 47.9598C135.143 47.7153 134.765 47.3266 134.472 46.7938C134.189 46.2797 134.02 45.7457 133.965 45.1916C133.915 44.6351 133.965 44.0901 134.117 43.5567C134.275 43.0254 134.526 42.5406 134.869 42.1023C135.212 41.664 135.643 41.3023 136.162 41.0171C136.662 40.7422 137.186 40.5762 137.732 40.5191C138.279 40.462 138.81 40.5081 139.324 40.6576C139.846 40.8091 140.32 41.0531 140.749 41.3897C141.182 41.7237 141.537 42.1431 141.815 42.6479C142.118 43.1994 142.253 43.755 142.22 44.3149C142.192 44.8721 142.042 45.3923 141.772 45.8755L142.948 45.1744ZM135.603 46.1446C135.857 46.6073 136.189 46.9453 136.599 47.1585C137.015 47.3738 137.467 47.4659 137.956 47.435C138.446 47.4087 138.925 47.2671 139.393 47.0102C139.869 46.7481 140.248 46.4183 140.528 46.0206C140.814 45.6204 140.975 45.1881 141.011 44.7236C141.055 44.2612 140.952 43.801 140.7 43.343C140.445 42.8803 140.1 42.5226 139.663 42.2699C139.225 42.0172 138.751 41.8853 138.24 41.8742C137.736 41.8652 137.248 41.9905 136.776 42.2499C136.304 42.5094 135.937 42.8603 135.675 43.3026C135.417 43.7422 135.278 44.2143 135.257 44.7188C135.241 45.2207 135.356 45.696 135.603 46.1446Z" fill="black"/>
<path d="M149.071 66.0933L148.698 64.3161L142.182 65.6773L141.906 64.362L148.421 63.0008L148.138 61.6543L149.454 61.3778L149.737 62.7244L152.193 62.1999L152.47 63.5152L150.013 64.0397L150.386 65.8168L149.071 66.0933Z" fill="black"/>
<path d="M143.493 83.0805C143.549 82.3467 143.79 81.6912 144.214 81.1141C144.638 80.5424 145.18 80.1001 145.841 79.7872C146.506 79.4802 147.225 79.3563 147.996 79.4158C148.581 79.4609 149.118 79.6066 149.607 79.8529C150.101 80.0996 150.526 80.4185 150.881 80.8096C151.241 81.2065 151.511 81.6553 151.692 82.156C151.873 82.6567 151.942 83.1809 151.9 83.7286C151.853 84.3295 151.689 84.8704 151.406 85.3514C151.127 85.8381 150.759 86.243 150.301 86.5661C149.842 86.8945 149.322 87.1245 148.739 87.2561C148.156 87.393 147.542 87.4126 146.897 87.3147L147.399 80.806C146.942 80.835 146.527 80.9527 146.152 81.1592C145.783 81.3662 145.481 81.6424 145.246 81.988C145.01 82.339 144.872 82.7376 144.833 83.1838C144.796 83.6624 144.885 84.1052 145.099 84.5122C145.319 84.9197 145.636 85.2597 146.048 85.5322L145.624 86.8715C144.941 86.4979 144.398 85.972 143.996 85.2938C143.599 84.6159 143.431 83.8782 143.493 83.0805ZM148.455 80.8473L148.054 86.0479C148.504 86.0398 148.922 85.9275 149.308 85.7112C149.699 85.4953 150.021 85.2072 150.273 84.8469C150.525 84.4865 150.669 84.083 150.703 83.6363C150.738 83.1897 150.66 82.7718 150.471 82.3828C150.282 81.9937 150.01 81.6626 149.657 81.3893C149.308 81.1217 148.908 80.941 148.455 80.8473Z" fill="black"/>
<path d="M145.723 108.923L145.192 110.158L137.608 106.893C137.124 106.685 136.718 106.385 136.392 105.995C136.06 105.608 135.815 105.172 135.658 104.686C135.496 104.199 135.427 103.693 135.449 103.168C135.467 102.642 135.581 102.133 135.792 101.644C136.011 101.134 136.339 100.691 136.773 100.315C137.203 99.937 137.686 99.6514 138.222 99.4582C138.751 99.2679 139.285 99.1955 139.822 99.2412L139.85 100.594C139.472 100.542 139.096 100.578 138.723 100.702C138.344 100.829 138.006 101.02 137.71 101.276C137.407 101.534 137.182 101.835 137.034 102.178C136.895 102.501 136.817 102.837 136.801 103.184C136.783 103.536 136.823 103.876 136.921 104.202C137.011 104.531 137.161 104.823 137.372 105.076C137.575 105.332 137.831 105.526 138.14 105.659L139.602 106.288C139.288 105.857 139.088 105.379 139 104.854C138.916 104.335 138.991 103.804 139.225 103.26C139.448 102.741 139.758 102.297 140.155 101.928C140.552 101.559 141.001 101.279 141.501 101.087C142.006 100.898 142.534 100.806 143.084 100.811C143.633 100.815 144.175 100.932 144.709 101.162C145.243 101.392 145.701 101.705 146.082 102.101C146.468 102.499 146.763 102.946 146.968 103.441C147.178 103.938 147.286 104.457 147.29 104.999C147.295 105.541 147.186 106.072 146.962 106.591C146.728 107.135 146.394 107.554 145.959 107.849C145.522 108.149 145.037 108.332 144.503 108.398L145.723 108.923ZM140.419 103.783C140.215 104.258 140.16 104.723 140.255 105.176C140.348 105.634 140.557 106.046 140.881 106.412C141.206 106.778 141.606 107.064 142.081 107.268C142.571 107.479 143.059 107.573 143.545 107.55C144.033 107.534 144.474 107.401 144.866 107.152C145.26 106.909 145.559 106.553 145.761 106.083C145.96 105.622 146.021 105.149 145.945 104.664C145.87 104.178 145.677 103.736 145.368 103.335C145.061 102.942 144.66 102.639 144.165 102.426C143.67 102.213 143.171 102.131 142.668 102.182C142.167 102.239 141.715 102.405 141.313 102.679C140.913 102.959 140.615 103.328 140.419 103.783Z" fill="black"/>
<path d="M128.015 121.97C128.509 121.425 129.1 121.054 129.789 120.858C130.474 120.665 131.174 120.648 131.888 120.805C132.602 120.97 133.246 121.312 133.819 121.831C134.254 122.225 134.589 122.669 134.825 123.163C135.065 123.661 135.205 124.173 135.246 124.7C135.288 125.234 135.227 125.754 135.063 126.261C134.899 126.767 134.633 127.224 134.264 127.631C133.77 128.177 133.18 128.546 132.495 128.738C131.806 128.934 131.105 128.95 130.39 128.785C129.673 128.625 129.025 128.283 128.448 127.76C128.017 127.37 127.684 126.927 127.448 126.433C127.212 125.939 127.073 125.425 127.032 124.89C126.991 124.364 127.052 123.847 127.216 123.341C127.376 122.838 127.642 122.381 128.015 121.97ZM129.011 122.873C128.674 123.244 128.469 123.666 128.394 124.138C128.319 124.617 128.365 125.087 128.531 125.547C128.698 126.015 128.971 126.42 129.35 126.764C129.738 127.115 130.174 127.348 130.659 127.464C131.141 127.583 131.613 127.583 132.075 127.462C132.537 127.341 132.935 127.096 133.268 126.729C133.605 126.357 133.808 125.934 133.879 125.458C133.954 124.986 133.908 124.517 133.742 124.049C133.575 123.582 133.3 123.174 132.917 122.827C132.521 122.469 132.081 122.232 131.596 122.116C131.114 122.004 130.643 122.012 130.181 122.141C129.723 122.273 129.333 122.517 129.011 122.873Z" fill="black"/>
<path d="M115.581 133.479L119.767 140.297L118.622 141L118.098 140.148C118.053 140.614 117.903 141.053 117.65 141.465C117.399 141.882 117.057 142.223 116.626 142.488C116.362 142.65 116.087 142.773 115.799 142.855L115.56 141.425C115.782 141.37 115.982 141.288 116.159 141.179C116.5 140.969 116.762 140.693 116.945 140.349C117.127 140.012 117.215 139.651 117.21 139.266C117.205 138.881 117.097 138.516 116.885 138.171L114.436 134.183L115.581 133.479Z" fill="black"/>
<path d="M97.9304 150.223L96.5567 150.598L97.6168 137.869L98.9905 137.494L98.6474 141.734L103.526 148.695L102.106 149.083L98.486 143.694L97.9304 150.223Z" fill="black"/>
</svg>
