<svg width="32" height="32" viewBox="0 0 32 32" fill="none" xmlns="http://www.w3.org/2000/svg">
<path d="M16 29.3327C15.5323 29.3327 15.0727 29.2106 14.6667 28.9787L5.33333 23.6347C4.508 23.1627 4 22.2907 4 21.3453V10.6547C4 9.71066 4.508 8.83733 5.33333 8.364L14.6667 3.02C15.0727 2.78802 15.5323 2.666 16 2.666C16.4677 2.666 16.9273 2.78802 17.3333 3.02L26.6667 8.364C27.0709 8.59427 27.4072 8.92728 27.6413 9.3293C27.8754 9.73133 27.9992 10.1881 28 10.6533V21.344C28 22.288 27.492 23.1613 26.6667 23.6347L17.3333 28.9787C16.9273 29.2106 16.4677 29.3327 16 29.3327ZM16 29.3327V16M16 16L27.64 9.28M16 16L4.36 9.28" stroke="white" stroke-width="2" stroke-linecap="round" stroke-linejoin="round"/>
</svg>
