<svg xmlns="http://www.w3.org/2000/svg" width="32" height="32" viewBox="0 0 32 32" fill="none">
  <path d="M16 29.3327C15.5323 29.3327 15.0727 29.2107 14.6667 28.9787L5.33333 23.6347C4.508 23.1627 4 22.2907 4 21.3453V10.6547C4 9.71068 4.508 8.83735 5.33333 8.36401L14.6667 3.02001C15.0727 2.78803 15.5323 2.66602 16 2.66602C16.4677 2.66602 16.9273 2.78803 17.3333 3.02001L26.6667 8.36401C27.0709 8.59428 27.4072 8.92729 27.6413 9.32932C27.8754 9.73135 27.9992 10.1881 28 10.6533V21.344C28 22.288 27.492 23.1613 26.6667 23.6347L17.3333 28.9787C16.9273 29.2107 16.4677 29.3327 16 29.3327ZM16 29.3327V16M16 16L27.64 9.28001M16 16L4.36 9.28001" stroke="#575757" stroke-width="2" stroke-linecap="round" stroke-linejoin="round"/>
</svg>