<svg xmlns="http://www.w3.org/2000/svg" width="40" height="40" viewBox="0 0 40 40" fill="none">
  <g clip-path="url(#clip0_346_1471)">
    <path d="M20 25C22.7614 25 25 22.7614 25 20C25 17.2386 22.7614 15 20 15C17.2386 15 15 17.2386 15 20C15 22.7614 17.2386 25 20 25Z" stroke="#575757" stroke-width="2" stroke-linecap="round" stroke-linejoin="round"/>
    <path d="M32.3337 25C32.1118 25.5027 32.0456 26.0603 32.1436 26.601C32.2417 27.1417 32.4994 27.6406 32.8837 28.0334L32.9837 28.1333C33.2936 28.4429 33.5394 28.8106 33.7072 29.2152C33.8749 29.6199 33.9613 30.0536 33.9613 30.4917C33.9613 30.9297 33.8749 31.3635 33.7072 31.7682C33.5394 32.1728 33.2936 32.5404 32.9837 32.85C32.6741 33.1599 32.3065 33.4058 31.9018 33.5735C31.4971 33.7413 31.0634 33.8276 30.6253 33.8276C30.1873 33.8276 29.7535 33.7413 29.3489 33.5735C28.9442 33.4058 28.5766 33.1599 28.267 32.85L28.167 32.75C27.7742 32.3658 27.2753 32.108 26.7346 32.01C26.194 31.912 25.6363 31.9782 25.1337 32.2C24.6407 32.4113 24.2203 32.7621 23.9242 33.2092C23.628 33.6564 23.4691 34.1804 23.467 34.7167V35C23.467 35.8841 23.1158 36.7319 22.4907 37.357C21.8656 37.9822 21.0177 38.3334 20.1337 38.3334C19.2496 38.3334 18.4018 37.9822 17.7766 37.357C17.1515 36.7319 16.8003 35.8841 16.8003 35V34.85C16.7874 34.2984 16.6089 33.7633 16.2878 33.3145C15.9668 32.8657 15.5182 32.5238 15.0003 32.3334C14.4976 32.1115 13.94 32.0453 13.3993 32.1433C12.8587 32.2414 12.3598 32.4991 11.967 32.8833L11.867 32.9834C11.5574 33.2933 11.1898 33.5391 10.7851 33.7069C10.3805 33.8746 9.94671 33.961 9.50866 33.961C9.07061 33.961 8.63685 33.8746 8.23219 33.7069C7.82753 33.5391 7.4599 33.2933 7.15032 32.9834C6.8404 32.6738 6.59454 32.3061 6.42679 31.9015C6.25904 31.4968 6.1727 31.0631 6.1727 30.625C6.1727 30.187 6.25904 29.7532 6.42679 29.3486C6.59454 28.9439 6.8404 28.5763 7.15032 28.2667L7.25032 28.1667C7.63455 27.7739 7.8923 27.275 7.99033 26.7343C8.08836 26.1937 8.02218 25.636 7.80032 25.1334C7.58905 24.6404 7.23825 24.22 6.7911 23.9239C6.34395 23.6277 5.81997 23.4688 5.28366 23.4667H5.00033C4.11627 23.4667 3.26842 23.1155 2.6433 22.4904C2.01818 21.8653 1.66699 21.0174 1.66699 20.1334C1.66699 19.2493 2.01818 18.4015 2.6433 17.7763C3.26842 17.1512 4.11627 16.8 5.00033 16.8H5.15033C5.70198 16.7871 6.237 16.6085 6.68582 16.2875C7.13465 15.9665 7.47652 15.5179 7.66699 15C7.88885 14.4973 7.95503 13.9397 7.857 13.399C7.75897 12.8584 7.50122 12.3595 7.11699 11.9667L7.01699 11.8667C6.70707 11.5571 6.46121 11.1895 6.29346 10.7848C6.12571 10.3802 6.03937 9.9464 6.03937 9.50835C6.03937 9.0703 6.12571 8.63655 6.29346 8.23189C6.46121 7.82723 6.70707 7.4596 7.01699 7.15002C7.32657 6.8401 7.6942 6.59424 8.09886 6.42649C8.50352 6.25874 8.93727 6.1724 9.37532 6.1724C9.81338 6.1724 10.2471 6.25874 10.6518 6.42649C11.0565 6.59424 11.4241 6.8401 11.7337 7.15002L11.8337 7.25002C12.2265 7.63425 12.7254 7.892 13.266 7.99003C13.8067 8.08806 14.3643 8.02188 14.867 7.80002H15.0003C15.4933 7.58875 15.9137 7.23795 16.2098 6.7908C16.5059 6.34365 16.6649 5.81966 16.667 5.28335V5.00002C16.667 4.11597 17.0182 3.26812 17.6433 2.643C18.2684 2.01788 19.1163 1.66669 20.0003 1.66669C20.8844 1.66669 21.7322 2.01788 22.3573 2.643C22.9825 3.26812 23.3337 4.11597 23.3337 5.00002V5.15002C23.3358 5.68633 23.4947 6.21031 23.7908 6.65746C24.087 7.10461 24.5074 7.45541 25.0003 7.66669C25.503 7.88854 26.0606 7.95473 26.6013 7.85669C27.142 7.75866 27.6409 7.50091 28.0337 7.11669L28.1337 7.01669C28.4432 6.70677 28.8109 6.4609 29.2155 6.29315C29.6202 6.12541 30.0539 6.03906 30.492 6.03906C30.93 6.03906 31.3638 6.12541 31.7685 6.29315C32.1731 6.4609 32.5407 6.70677 32.8503 7.01669C33.1602 7.32626 33.4061 7.69389 33.5739 8.09855C33.7416 8.50321 33.8279 8.93697 33.8279 9.37502C33.8279 9.81307 33.7416 10.2468 33.5739 10.6515C33.4061 11.0561 33.1602 11.4238 32.8503 11.7334L32.7503 11.8334C32.3661 12.2262 32.1083 12.725 32.0103 13.2657C31.9123 13.8064 31.9785 14.364 32.2003 14.8667V15C32.4116 15.493 32.7624 15.9134 33.2095 16.2095C33.6567 16.5056 34.1807 16.6645 34.717 16.6667H35.0003C35.8844 16.6667 36.7322 17.0179 37.3573 17.643C37.9825 18.2681 38.3337 19.116 38.3337 20C38.3337 20.8841 37.9825 21.7319 37.3573 22.357C36.7322 22.9822 35.8844 23.3334 35.0003 23.3334H34.8503C34.314 23.3355 33.79 23.4944 33.3429 23.7905C32.8957 24.0867 32.5449 24.5071 32.3337 25V25Z" stroke="#575757" stroke-width="2" stroke-linecap="round" stroke-linejoin="round"/>
  </g>
  <defs>
    <clipPath id="clip0_346_1471">
      <rect width="40" height="40" fill="white"/>
    </clipPath>
  </defs>
</svg>