<svg width="160" height="159" viewBox="0 0 160 159" fill="none" xmlns="http://www.w3.org/2000/svg">
<path d="M64.1469 142.629C64.7264 142.795 65.2598 143.044 65.7471 143.377C66.2329 143.715 66.6301 144.111 66.9387 144.566C67.2421 145.018 67.4119 145.502 67.448 146.017L66.1107 146.126C66.09 145.81 65.972 145.504 65.7565 145.21C65.5344 144.919 65.2505 144.661 64.9046 144.434C64.5588 144.208 64.1832 144.037 63.7781 143.922C63.3165 143.79 62.867 143.742 62.4297 143.778C61.9858 143.818 61.6019 143.938 61.2782 144.14C60.9545 144.342 60.7406 144.624 60.6367 144.989C60.5299 145.363 60.571 145.705 60.7602 146.014C60.9478 146.328 61.2219 146.611 61.5824 146.864C61.9415 147.122 62.328 147.351 62.742 147.553C63.4505 147.888 64.0675 148.253 64.5929 148.647C65.1117 149.044 65.4844 149.497 65.7109 150.005C65.9323 150.512 65.9472 151.102 65.7555 151.774C65.5769 152.399 65.2416 152.894 64.7494 153.259C64.2521 153.621 63.6694 153.846 63.0013 153.933C62.3332 154.019 61.6556 153.965 60.9683 153.769C60.399 153.606 59.8733 153.359 59.3912 153.027C58.9024 152.699 58.5012 152.308 58.1875 151.852C57.8738 151.396 57.6967 150.899 57.6562 150.361L59.0067 150.264C59.0259 150.585 59.1465 150.892 59.3685 151.182C59.584 151.477 59.8654 151.735 60.2128 151.956C60.5535 152.18 60.929 152.351 61.3393 152.468C61.7943 152.604 62.2412 152.651 62.68 152.61C63.1188 152.569 63.5001 152.447 63.8238 152.246C64.1475 152.044 64.3606 151.764 64.4631 151.405C64.586 150.974 64.5675 150.611 64.4077 150.316C64.2413 150.024 63.9768 149.766 63.6141 149.54C63.2514 149.315 62.8363 149.088 62.3688 148.861C61.705 148.544 61.1122 148.172 60.5904 147.746C60.0672 147.325 59.6861 146.853 59.4471 146.33C59.203 145.805 59.1687 145.235 59.3443 144.62C59.5229 143.994 59.8608 143.5 60.3581 143.137C60.8503 142.773 61.4304 142.547 62.0985 142.461C62.7666 142.374 63.4494 142.43 64.1469 142.629Z" fill="black"/>
<path d="M38.5943 136.229L41.4347 132.143L42.5382 132.91L39.8668 136.753C39.6354 137.086 39.5063 137.444 39.4796 137.828C39.4529 138.213 39.5205 138.578 39.6824 138.924C39.8413 139.275 40.0871 139.566 40.4199 139.797C40.7483 140.026 41.1068 140.155 41.4953 140.185C41.8764 140.216 42.2424 140.152 42.5931 139.993C42.9439 139.834 43.235 139.588 43.4664 139.255L46.1378 135.413L47.2413 136.18L40.3915 146.033L39.288 145.266L42.1421 141.16C41.6969 141.305 41.2345 141.345 40.755 141.277C40.2724 141.215 39.8231 141.039 39.4071 140.75C38.9167 140.409 38.5537 139.978 38.3183 139.457C38.0754 138.937 37.9758 138.394 38.0194 137.827C38.0586 137.256 38.2503 136.724 38.5943 136.229Z" fill="black"/>
<path d="M29.3229 120.2C29.7654 120.788 30.0182 121.439 30.0812 122.153C30.1411 122.862 30.0264 123.552 29.7374 124.224C29.4409 124.894 28.9836 125.462 28.3657 125.927C27.897 126.279 27.3976 126.525 26.8677 126.663C26.3335 126.805 25.804 126.846 25.2791 126.788C24.7467 126.728 24.2473 126.57 23.7807 126.313C23.3142 126.057 22.9158 125.709 22.5855 125.27C22.1429 124.682 21.8917 124.034 21.8319 123.324C21.7689 122.611 21.8857 121.919 22.1822 121.249C22.4755 120.574 22.9332 120.003 23.5554 119.534C24.0199 119.185 24.5171 118.941 25.047 118.802C25.5769 118.664 26.1081 118.625 26.6404 118.685C27.1653 118.743 27.6611 118.901 28.1276 119.157C28.591 119.409 28.9894 119.757 29.3229 120.2ZM28.249 121.008C27.9476 120.608 27.5722 120.326 27.1228 120.164C26.666 120 26.1961 119.957 25.713 120.033C25.2225 120.109 24.7727 120.3 24.3635 120.608C23.9459 120.923 23.6345 121.307 23.4294 121.762C23.2211 122.212 23.1327 122.676 23.1644 123.153C23.1961 123.629 23.3611 124.066 23.6594 124.462C23.9608 124.863 24.3383 125.143 24.7919 125.302C25.2412 125.464 25.7112 125.508 26.2017 125.432C26.6923 125.357 27.1442 125.164 27.5576 124.853C27.9837 124.532 28.2994 124.144 28.5045 123.69C28.7054 123.238 28.7862 122.773 28.7471 122.296C28.7036 121.821 28.5376 121.392 28.249 121.008Z" fill="black"/>
<path d="M23.4986 103.218L23.9157 104.496L12.5083 108.22L12.0911 106.943L13.3916 106.518C12.861 106.405 12.3885 106.178 11.974 105.836C11.5545 105.496 11.2479 105.03 11.0542 104.437C10.8738 103.884 10.8089 103.333 10.8595 102.783C10.9085 102.229 11.0584 101.709 11.3094 101.223C11.5552 100.739 11.885 100.314 12.2988 99.9488C12.7126 99.5837 13.1958 99.3109 13.7484 99.1305C14.3011 98.95 14.8547 98.8843 15.4093 98.9333C15.9638 98.9823 16.4858 99.1288 16.9751 99.373C17.4593 99.6189 17.8848 99.9513 18.2515 100.37C18.6167 100.784 18.8894 101.267 19.0698 101.82C19.2635 102.413 19.2938 102.97 19.1607 103.49C19.0226 104.012 18.7726 104.475 18.4109 104.879L23.4986 103.218ZM12.2988 104.047C12.4593 104.539 12.7242 104.929 13.0935 105.218C13.4628 105.507 13.8884 105.685 14.3703 105.752C14.8506 105.814 15.3468 105.762 15.8589 105.595C16.3659 105.429 16.7975 105.179 17.1537 104.844C17.5083 104.504 17.7503 104.11 17.8795 103.664C18.0071 103.213 17.9898 102.739 17.8276 102.242C17.667 101.75 17.398 101.339 17.0206 101.008C16.6381 100.678 16.1984 100.457 15.7016 100.344C15.1997 100.233 14.6901 100.262 14.173 100.431C13.666 100.596 13.2444 100.869 12.9081 101.248C12.5667 101.629 12.3389 102.065 12.2245 102.557C12.1102 103.048 12.1349 103.545 12.2988 104.047Z" fill="black"/>
<path d="M6.08167 67.5562L8.02416 67.9186L8.45402 65.6143L9.77523 65.8608L9.34537 68.165L15.8885 69.3857L15.642 70.7069L9.09889 69.4863L8.90963 70.5008L7.58843 70.2543L7.77769 69.2398L5.8352 68.8774C5.43149 68.8021 5.08521 68.6371 4.79634 68.3825C4.5032 68.1216 4.29045 67.808 4.15808 67.4415C4.02145 67.0688 3.9903 66.6832 4.06464 66.2847C4.11941 65.9911 4.23301 65.7166 4.40543 65.4613C4.57261 65.2049 4.7916 64.9908 5.06238 64.8188L5.82219 65.9371C5.70888 65.992 5.61476 66.0748 5.53984 66.1856C5.46065 66.2902 5.40932 66.4054 5.38584 66.5312C5.34183 66.7671 5.38757 66.9873 5.52307 67.1916C5.65954 67.3906 5.84574 67.5122 6.08167 67.5562Z" fill="black"/>
<path d="M21.4117 52.3042C21.0794 52.9609 20.607 53.475 19.9946 53.8465C19.3846 54.2132 18.7146 54.4151 17.9845 54.452C17.2521 54.4819 16.5409 54.3222 15.8509 53.973C15.3275 53.708 14.8867 53.3684 14.5286 52.954C14.1657 52.5372 13.8948 52.0803 13.7159 51.5833C13.5347 51.0792 13.4562 50.5612 13.4802 50.0294C13.5043 49.4977 13.6403 48.9867 13.8884 48.4966C14.1605 47.9589 14.5193 47.5217 14.9645 47.1852C15.4075 46.8415 15.9023 46.6078 16.4492 46.4841C16.9984 46.3555 17.5673 46.3416 18.1559 46.4423C18.747 46.5382 19.322 46.7545 19.8808 47.0911L16.933 52.9156C17.3664 53.0632 17.7955 53.113 18.2203 53.065C18.6403 53.0146 19.025 52.8746 19.3743 52.6449C19.7261 52.4105 20.0055 52.0946 20.2126 51.6973C20.4293 51.269 20.5162 50.8258 20.4731 50.3676C20.4252 49.9071 20.2628 49.4722 19.9857 49.063L20.889 47.9869C21.3774 48.5927 21.6781 49.2859 21.7912 50.0664C21.8995 50.8445 21.773 51.5904 21.4117 52.3042ZM15.9727 52.4745L18.3281 47.8206C17.9091 47.6563 17.4801 47.6006 17.0409 47.6533C16.597 47.7036 16.1897 47.8471 15.8188 48.0838C15.448 48.3205 15.1614 48.6387 14.9591 49.0385C14.7568 49.4382 14.6689 49.854 14.6954 50.2858C14.7219 50.7177 14.8463 51.1273 15.0687 51.5148C15.2886 51.8951 15.59 52.215 15.9727 52.4745Z" fill="black"/>
<path d="M30.1746 37.1956L24.9242 31.1597L25.9382 30.2776L26.5945 31.0321C26.5628 30.5649 26.6361 30.1088 26.8145 29.6638C26.9934 29.2113 27.274 28.8187 27.6563 28.4862C28.103 28.0977 28.6059 27.851 29.1651 27.7463C29.7244 27.6416 30.2664 27.6755 30.7912 27.8481C30.6929 27.3045 30.7324 26.7648 30.9095 26.2289C31.0907 25.6896 31.4026 25.2274 31.8453 24.8424C32.3 24.4469 32.8087 24.1988 33.3714 24.098C33.9306 23.9933 34.4799 24.0315 35.0192 24.2127C35.5626 24.3904 36.032 24.7066 36.4276 25.1613L39.6933 28.9157L38.6793 29.7978L35.6235 26.2849C35.3645 25.9871 35.0523 25.7744 34.6869 25.6469C34.3215 25.5194 33.9496 25.486 33.5711 25.5466C33.1927 25.6072 32.8545 25.767 32.5568 26.026C32.259 26.2851 32.0504 26.5938 31.9309 26.9521C31.808 27.3065 31.7843 27.6734 31.86 28.053C31.9321 28.4285 32.1082 28.7772 32.3882 29.0991L35.444 32.612L34.4299 33.4941L31.3742 29.9812C31.0942 29.6592 30.7732 29.4365 30.4113 29.3131C30.046 29.1856 29.6773 29.1599 29.3053 29.2361C28.9338 29.3047 28.5992 29.4686 28.3014 29.7276C28.0077 29.9831 27.8025 30.2958 27.6861 30.6658C27.5736 31.0322 27.5552 31.4052 27.6309 31.7847C27.7065 32.1642 27.8739 32.5029 28.1329 32.8006L31.1886 36.3136L30.1746 37.1956Z" fill="black"/>
<path d="M57.5111 10.5684L58.7877 10.148L61.2904 17.7464L60.0139 18.1669L59.5377 16.9003C59.4448 17.4194 59.2331 17.885 58.9028 18.297C58.5775 18.7073 58.1261 19.0076 57.5486 19.1978C56.9914 19.3814 56.4355 19.4494 55.8808 19.4019C55.3244 19.3493 54.7979 19.1998 54.3012 18.9535C53.8079 18.7004 53.3774 18.365 53.0095 17.9471C52.6417 17.5292 52.3651 17.0391 52.1799 16.4768C52.0014 15.9348 51.9342 15.3898 51.9783 14.8418C52.0224 14.2938 52.1651 13.7808 52.4063 13.3027C52.6509 12.8178 52.9779 12.3957 53.3873 12.0362C53.7951 11.6717 54.2725 11.3993 54.8196 11.2191C55.4173 11.0222 55.9884 10.9914 56.5326 11.1266C57.0752 11.2567 57.5593 11.4987 57.9847 11.8527L57.5111 10.5684ZM57.1179 17.9668C57.6194 17.8016 58.0125 17.5374 58.2971 17.1741C58.5851 16.8041 58.7587 16.3763 58.8178 15.8908C58.8819 15.4036 58.8306 14.9067 58.6637 14.4002C58.4935 13.8835 58.2387 13.4508 57.8993 13.1022C57.5582 12.7485 57.1627 12.5109 56.7128 12.3896C56.2663 12.2615 55.7949 12.2792 55.2984 12.4427C54.7969 12.6079 54.3819 12.8822 54.0533 13.2655C53.7248 13.6489 53.5082 14.0909 53.4035 14.5914C53.3022 15.0852 53.3359 15.5879 53.5044 16.0995C53.6729 16.6112 53.9505 17.0363 54.3372 17.375C54.7222 17.7086 55.1608 17.932 55.6529 18.0451C56.1433 18.1531 56.6316 18.127 57.1179 17.9668Z" fill="black"/>
<path d="M75.1279 15.1942L74.5826 3.20657L75.9252 3.14551L76.4705 15.1331L75.1279 15.1942Z" fill="black"/>
<path d="M92 16.3692C91.2811 16.2116 90.6652 15.8827 90.1525 15.3825C89.6449 14.8835 89.282 14.2852 89.0637 13.5876C88.8518 12.8859 88.8287 12.1574 88.9943 11.402C89.12 10.829 89.3387 10.3173 89.6504 9.86692C89.9633 9.41137 90.338 9.0349 90.7745 8.73751C91.2174 8.43606 91.6993 8.23052 92.2202 8.12091C92.7411 8.01129 93.2698 8.01533 93.8064 8.13302C94.3951 8.26213 94.908 8.50021 95.3451 8.84725C95.7886 9.19022 96.1386 9.61097 96.3951 10.1095C96.6568 10.6092 96.8125 11.1566 96.8621 11.7517C96.917 12.3479 96.8513 12.9587 96.665 13.584L90.2885 12.1855C90.2539 12.642 90.313 13.0699 90.4656 13.4692C90.6194 13.8633 90.8512 14.2008 91.1609 14.4817C91.4758 14.7637 91.8514 14.9553 92.2879 15.0564C92.7568 15.1593 93.2076 15.1326 93.6405 14.9764C94.0745 14.8149 94.4549 14.5489 94.7819 14.1784L96.0496 14.784C95.5851 15.4083 94.9891 15.8728 94.2616 16.1773C93.5353 16.4767 92.7814 16.5406 92 16.3692ZM90.4757 11.1454L95.5706 12.2629C95.6249 11.8161 95.5717 11.3867 95.4109 10.9747C95.2512 10.5575 95.0104 10.1989 94.6885 9.89901C94.3667 9.59908 93.9869 9.40113 93.5493 9.30515C93.1117 9.20918 92.6872 9.22799 92.2757 9.3616C91.8641 9.49521 91.4986 9.71807 91.179 10.0302C90.8657 10.3382 90.6313 10.71 90.4757 11.1454Z" fill="black"/>
<path d="M125.135 30.5195L125.586 31.8066C124.977 31.937 124.363 31.9261 123.744 31.7738C123.13 31.6252 122.582 31.3318 122.101 30.8937C121.556 30.3982 121.187 29.8057 120.992 29.1164C120.802 28.4307 120.786 27.7311 120.945 27.0176C121.112 26.3038 121.455 25.661 121.976 25.0892C122.371 24.6555 122.816 24.3213 123.311 24.0867C123.81 23.8482 124.322 23.7091 124.849 23.6693C125.383 23.6292 125.903 23.6917 126.409 23.8568C126.915 24.0219 127.371 24.2893 127.778 24.6592C128.259 25.0973 128.602 25.6154 128.807 26.2136C129.017 26.8155 129.083 27.4277 129.007 28.0505L127.683 27.7217C127.706 27.3166 127.644 26.9325 127.499 26.5694C127.354 26.2062 127.145 25.9007 126.873 25.6529C126.506 25.319 126.083 25.1141 125.604 25.0384C125.132 24.9623 124.662 25.007 124.194 25.1723C123.726 25.3377 123.318 25.6116 122.97 25.9941C122.622 26.3766 122.387 26.8086 122.266 27.2899C122.153 27.7709 122.156 28.2427 122.276 28.7052C122.399 29.1714 122.643 29.5696 123.005 29.9C123.297 30.1657 123.632 30.3482 124.011 30.4475C124.389 30.5469 124.764 30.5709 125.135 30.5195Z" fill="black"/>
<path d="M143.948 45.1745L144.596 46.3523L137.585 50.206L136.938 49.0282L138.096 48.3279C137.568 48.3317 137.072 48.2091 136.606 47.9599C136.143 47.7154 135.765 47.3267 135.472 46.7939C135.19 46.2798 135.021 45.7457 134.966 45.1917C134.915 44.6351 134.966 44.0901 135.117 43.5567C135.275 43.0254 135.526 42.5406 135.869 42.1024C136.213 41.6641 136.644 41.3024 137.162 41.0172C137.663 40.7423 138.186 40.5763 138.733 40.5192C139.28 40.4621 139.81 40.5082 140.324 40.6576C140.846 40.8092 141.321 41.0532 141.749 41.3898C142.182 41.7238 142.538 42.1431 142.815 42.6479C143.118 43.1994 143.253 43.7551 143.22 44.3149C143.192 44.8722 143.043 45.3924 142.773 45.8755L143.948 45.1745ZM136.603 46.1447C136.858 46.6074 137.189 46.9453 137.599 47.1585C138.015 47.3738 138.468 47.466 138.956 47.435C139.447 47.4087 139.926 47.2671 140.393 47.0102C140.87 46.7482 141.248 46.4183 141.529 46.0207C141.814 45.6205 141.975 45.1882 142.012 44.7237C142.056 44.2613 141.952 43.801 141.7 43.343C141.446 42.8803 141.1 42.5226 140.663 42.2699C140.226 42.0173 139.752 41.8854 139.24 41.8743C138.736 41.8653 138.248 41.9905 137.776 42.25C137.304 42.5095 136.937 42.8604 136.675 43.3026C136.418 43.7423 136.279 44.2144 136.258 44.7188C136.241 45.2207 136.357 45.696 136.603 46.1447Z" fill="black"/>
<path d="M150.071 66.0932L149.698 64.316L143.182 65.6772L142.906 64.362L149.421 63.0008L149.138 61.6542L150.454 61.3778L150.737 62.7243L153.193 62.1998L153.47 63.5151L151.013 64.0396L151.386 65.8168L150.071 66.0932Z" fill="black"/>
<path d="M144.493 83.0805C144.549 82.3467 144.79 81.6912 145.214 81.1141C145.638 80.5424 146.18 80.1001 146.841 79.7872C147.506 79.4802 148.225 79.3563 148.996 79.4158C149.581 79.4609 150.118 79.6066 150.607 79.8529C151.101 80.0996 151.526 80.4185 151.881 80.8096C152.241 81.2065 152.511 81.6553 152.692 82.156C152.873 82.6567 152.942 83.1809 152.9 83.7286C152.853 84.3295 152.689 84.8704 152.406 85.3514C152.127 85.8381 151.759 86.243 151.301 86.5661C150.842 86.8945 150.322 87.1245 149.739 87.2561C149.156 87.393 148.542 87.4126 147.897 87.3147L148.399 80.806C147.942 80.835 147.527 80.9527 147.152 81.1592C146.783 81.3662 146.481 81.6424 146.246 81.988C146.01 82.339 145.872 82.7376 145.833 83.1838C145.796 83.6624 145.885 84.1052 146.099 84.5122C146.319 84.9197 146.636 85.2597 147.048 85.5322L146.624 86.8715C145.941 86.4979 145.398 85.972 144.996 85.2938C144.599 84.6159 144.431 83.8782 144.493 83.0805ZM149.455 80.8473L149.054 86.0479C149.504 86.0398 149.922 85.9275 150.308 85.7112C150.699 85.4953 151.021 85.2072 151.273 84.8469C151.525 84.4865 151.669 84.083 151.703 83.6363C151.738 83.1897 151.66 82.7718 151.471 82.3828C151.282 81.9937 151.01 81.6626 150.657 81.3893C150.308 81.1217 149.908 80.941 149.455 80.8473Z" fill="black"/>
<path d="M146.723 108.923L146.192 110.158L138.608 106.893C138.124 106.685 137.718 106.385 137.392 105.995C137.06 105.608 136.815 105.172 136.658 104.686C136.496 104.199 136.427 103.693 136.449 103.168C136.467 102.642 136.581 102.133 136.792 101.644C137.011 101.134 137.339 100.691 137.773 100.315C138.203 99.937 138.686 99.6514 139.222 99.4582C139.751 99.2679 140.285 99.1955 140.822 99.2412L140.85 100.594C140.472 100.542 140.096 100.578 139.723 100.702C139.344 100.829 139.006 101.02 138.71 101.276C138.407 101.534 138.182 101.835 138.034 102.178C137.895 102.501 137.817 102.837 137.801 103.184C137.783 103.536 137.823 103.876 137.921 104.202C138.011 104.531 138.161 104.823 138.372 105.076C138.575 105.332 138.831 105.526 139.14 105.659L140.602 106.288C140.288 105.857 140.088 105.379 140 104.854C139.916 104.335 139.991 103.804 140.225 103.26C140.448 102.741 140.758 102.297 141.155 101.928C141.552 101.559 142.001 101.279 142.501 101.087C143.006 100.898 143.534 100.806 144.084 100.811C144.633 100.815 145.175 100.932 145.709 101.162C146.243 101.392 146.701 101.705 147.082 102.101C147.468 102.499 147.763 102.946 147.968 103.441C148.178 103.938 148.286 104.457 148.29 104.999C148.295 105.541 148.186 106.072 147.962 106.591C147.728 107.135 147.394 107.554 146.959 107.849C146.522 108.149 146.037 108.332 145.503 108.398L146.723 108.923ZM141.419 103.783C141.215 104.258 141.16 104.723 141.255 105.176C141.348 105.634 141.557 106.046 141.881 106.412C142.206 106.778 142.606 107.064 143.081 107.268C143.571 107.479 144.059 107.573 144.545 107.55C145.033 107.534 145.474 107.401 145.866 107.152C146.26 106.909 146.559 106.553 146.761 106.083C146.96 105.622 147.021 105.149 146.945 104.664C146.87 104.178 146.677 103.736 146.368 103.335C146.061 102.942 145.66 102.639 145.165 102.426C144.67 102.213 144.171 102.131 143.668 102.182C143.167 102.239 142.715 102.405 142.313 102.679C141.913 102.959 141.615 103.328 141.419 103.783Z" fill="black"/>
<path d="M129.015 121.97C129.509 121.425 130.1 121.054 130.789 120.858C131.474 120.665 132.174 120.648 132.888 120.805C133.602 120.97 134.246 121.312 134.819 121.831C135.254 122.225 135.589 122.669 135.825 123.163C136.065 123.661 136.205 124.173 136.246 124.7C136.288 125.234 136.227 125.754 136.063 126.261C135.899 126.767 135.633 127.224 135.264 127.631C134.77 128.177 134.18 128.546 133.495 128.738C132.806 128.934 132.105 128.95 131.39 128.785C130.673 128.625 130.025 128.283 129.448 127.76C129.017 127.37 128.684 126.927 128.448 126.433C128.212 125.939 128.073 125.425 128.032 124.89C127.991 124.364 128.052 123.847 128.216 123.341C128.376 122.838 128.642 122.381 129.015 121.97ZM130.011 122.873C129.674 123.244 129.469 123.666 129.394 124.138C129.319 124.617 129.365 125.087 129.531 125.547C129.698 126.015 129.971 126.42 130.35 126.764C130.738 127.115 131.174 127.348 131.659 127.464C132.141 127.583 132.613 127.583 133.075 127.462C133.537 127.341 133.935 127.096 134.268 126.729C134.605 126.357 134.808 125.934 134.879 125.458C134.954 124.986 134.908 124.517 134.742 124.049C134.575 123.582 134.3 123.174 133.917 122.827C133.521 122.469 133.081 122.232 132.596 122.116C132.114 122.004 131.643 122.012 131.181 122.141C130.723 122.273 130.333 122.517 130.011 122.873Z" fill="black"/>
<path d="M116.581 133.479L120.767 140.297L119.622 141L119.099 140.148C119.053 140.614 118.904 141.053 118.65 141.465C118.399 141.882 118.058 142.223 117.626 142.488C117.362 142.65 117.087 142.773 116.8 142.855L116.56 141.425C116.782 141.37 116.982 141.288 117.16 141.179C117.5 140.969 117.762 140.693 117.946 140.349C118.127 140.012 118.215 139.651 118.21 139.266C118.205 138.881 118.097 138.516 117.885 138.171L115.436 134.183L116.581 133.479Z" fill="black"/>
<path d="M98.9304 150.223L97.5567 150.598L98.6168 137.869L99.9905 137.494L99.6474 141.734L104.526 148.695L103.106 149.083L99.486 143.694L98.9304 150.223Z" fill="black"/>
</svg>
