<svg xmlns="http://www.w3.org/2000/svg" width="19" height="18" viewBox="0 0 19 18" fill="none">
  <g clip-path="url(#clip0_2050_5361)">
    <path d="M18.25 9C18.25 13.0388 15.4327 16.4203 11.6562 17.2854V12.1016H13.2533H13.6825L13.7475 11.6774L14.1466 9.0758L14.2349 8.5H13.6523H11.6562V7.3118C11.6562 7.02859 11.7265 6.81033 11.8485 6.66916C11.9589 6.54153 12.1725 6.40625 12.623 6.40625H13.7578H14.2578V5.90625V3.69141V3.26951L13.8419 3.19853L13.7578 3.69141L13.8418 3.19852L13.8417 3.1985L13.8414 3.19845L13.8406 3.1983L13.8377 3.19782L13.8276 3.19613L13.7905 3.19011C13.7586 3.18501 13.7125 3.17783 13.6543 3.16927C13.5381 3.15217 13.3734 3.12948 13.1771 3.10682C12.7867 3.06174 12.2622 3.01562 11.7432 3.01562C10.6143 3.01562 9.62575 3.3596 8.91885 4.06716C8.21143 4.77522 7.84375 5.78959 7.84375 7.01719V8.5H6.05859H5.55859V9V11.6016V12.1016H6.05859H7.84375V17.2854C4.06729 16.4203 1.25 13.0387 1.25 9C1.25 4.30561 5.05561 0.5 9.75 0.5C14.4444 0.5 18.25 4.30561 18.25 9Z" fill="#1877F2" stroke="#1877F2"/>
    <path d="M13.2533 11.6016L13.6523 9H11.1562V7.3118C11.1562 6.59995 11.5049 5.90625 12.623 5.90625H13.7578V3.69141C13.7578 3.69141 12.7279 3.51562 11.7431 3.51562C9.68742 3.51562 8.34375 4.76156 8.34375 7.01719V9H6.05859V11.6016H8.34375V17.8907C8.80895 17.9636 9.27912 18.0001 9.75 18C10.2209 18.0001 10.6911 17.9636 11.1562 17.8907V11.6016H13.2533Z" fill="white"/>
  </g>
  <defs>
    <clipPath id="clip0_2050_5361">
      <rect width="18" height="18" fill="white" transform="translate(0.75)"/>
    </clipPath>
  </defs>
</svg>